<svg width="75" height="61" viewBox="0 0 75 61" fill="none" xmlns="http://www.w3.org/2000/svg">
<path d="M0 -1H38V48C38 54.6274 32.6274 60 26 60H0V-1Z" fill="#FF9900"/>
<path d="M12.7216 38V20.5455H24.0739V23.196H15.8835V27.9347H23.4858V30.5852H15.8835V35.3494H24.142V38H12.7216Z" fill="white"/>
<path d="M44.8217 58V48.5455H51.1925V50.1935H46.8207V52.4464H50.8647V54.0945H46.8207V56.3519H51.2109V58H44.8217ZM58.6446 52.9311L56.8442 53.0419C56.8134 52.888 56.7472 52.7495 56.6457 52.6264C56.5441 52.5002 56.4102 52.4002 56.2441 52.3263C56.0809 52.2494 55.8855 52.2109 55.6578 52.2109C55.3531 52.2109 55.0961 52.2756 54.8868 52.4048C54.6775 52.531 54.5729 52.7003 54.5729 52.9126C54.5729 53.0819 54.6406 53.225 54.776 53.342C54.9114 53.4589 55.1438 53.5528 55.4731 53.6236L56.7565 53.8821C57.4459 54.0237 57.9598 54.2514 58.2984 54.5653C58.6369 54.8793 58.8062 55.2917 58.8062 55.8026C58.8062 56.2673 58.6692 56.6751 58.3953 57.0259C58.1245 57.3768 57.7521 57.6507 57.2781 57.8477C56.8073 58.0415 56.2641 58.1385 55.6485 58.1385C54.7098 58.1385 53.962 57.9431 53.4049 57.5522C52.8509 57.1583 52.5262 56.6228 52.4308 55.9457L54.3651 55.8441C54.4236 56.1303 54.5652 56.3488 54.7899 56.4996C55.0145 56.6474 55.3023 56.7212 55.6531 56.7212C55.9978 56.7212 56.2748 56.6551 56.4841 56.5227C56.6965 56.3873 56.8042 56.2134 56.8073 56.0011C56.8042 55.8226 56.7288 55.6764 56.5811 55.5625C56.4333 55.4455 56.2056 55.3563 55.8978 55.2947L54.6698 55.0501C53.9774 54.9116 53.4619 54.6715 53.1233 54.3299C52.7878 53.9883 52.6201 53.5528 52.6201 53.0234C52.6201 52.5679 52.7432 52.1755 52.9894 51.8462C53.2387 51.5169 53.588 51.263 54.0374 51.0845C54.4898 50.906 55.0191 50.8168 55.6254 50.8168C56.521 50.8168 57.2258 51.006 57.7398 51.3846C58.2568 51.7631 58.5584 52.2786 58.6446 52.9311ZM62.0666 58.1339C61.6142 58.1339 61.211 58.0554 60.8571 57.8984C60.5031 57.7384 60.2231 57.503 60.0169 57.1921C59.8137 56.8782 59.7122 56.4873 59.7122 56.0195C59.7122 55.6256 59.7845 55.2947 59.9292 55.027C60.0738 54.7592 60.2708 54.5438 60.5201 54.3807C60.7694 54.2176 61.0525 54.0945 61.3695 54.0114C61.6896 53.9283 62.025 53.8698 62.3759 53.8359C62.7883 53.7929 63.1207 53.7528 63.373 53.7159C63.6254 53.6759 63.8085 53.6174 63.9224 53.5405C64.0363 53.4635 64.0932 53.3497 64.0932 53.1989V53.1712C64.0932 52.8788 64.0009 52.6526 63.8162 52.4925C63.6346 52.3325 63.3761 52.2525 63.0407 52.2525C62.6867 52.2525 62.4051 52.331 62.1958 52.4879C61.9866 52.6418 61.8481 52.8357 61.7804 53.0696L59.9615 52.9219C60.0538 52.491 60.2354 52.1186 60.5062 51.8047C60.777 51.4877 61.1264 51.2446 61.5542 51.0753C61.985 50.9029 62.4836 50.8168 63.0499 50.8168C63.4438 50.8168 63.8208 50.8629 64.1809 50.9553C64.5441 51.0476 64.8657 51.1907 65.1458 51.3846C65.4289 51.5785 65.652 51.8278 65.8152 52.1325C65.9783 52.4341 66.0598 52.7957 66.0598 53.2173V58H64.1948V57.0167H64.1394C64.0255 57.2383 63.8732 57.4337 63.6824 57.603C63.4915 57.7692 63.2623 57.9 62.9945 57.9954C62.7267 58.0877 62.4174 58.1339 62.0666 58.1339ZM62.6298 56.7766C62.9191 56.7766 63.1745 56.7197 63.3961 56.6058C63.6177 56.4889 63.7916 56.3319 63.9178 56.1349C64.044 55.938 64.1071 55.7148 64.1071 55.4656V54.7131C64.0455 54.7531 63.9609 54.79 63.8532 54.8239C63.7485 54.8546 63.63 54.8839 63.4977 54.9116C63.3654 54.9362 63.233 54.9593 63.1007 54.9808C62.9683 54.9993 62.8483 55.0162 62.7406 55.0316C62.5098 55.0655 62.3082 55.1193 62.1358 55.1932C61.9635 55.267 61.8296 55.3671 61.7342 55.4933C61.6388 55.6164 61.5911 55.7702 61.5911 55.9549C61.5911 56.2227 61.688 56.4273 61.8819 56.5689C62.0789 56.7074 62.3282 56.7766 62.6298 56.7766ZM72.1328 54.9808V50.9091H74.0994V58H72.2113V56.712H72.1374C71.9774 57.1275 71.7112 57.4614 71.3388 57.7138C70.9695 57.9661 70.5186 58.0923 69.9862 58.0923C69.5122 58.0923 69.0952 57.9846 68.7351 57.7692C68.375 57.5537 68.0934 57.2475 67.8903 56.8505C67.6902 56.4535 67.5887 55.978 67.5856 55.424V50.9091H69.5522V55.0732C69.5553 55.4917 69.6676 55.8226 69.8892 56.0657C70.1108 56.3088 70.4078 56.4304 70.7802 56.4304C71.0172 56.4304 71.2388 56.3765 71.445 56.2688C71.6512 56.158 71.8174 55.9949 71.9435 55.7795C72.0728 55.564 72.1359 55.2978 72.1328 54.9808Z" fill="#FF9900"/>
</svg>
